<?xml version="1.0" encoding="UTF-8"?>
<svg width="20px" height="20px" viewBox="0 0 20 20" version="1.1" xmlns="http://www.w3.org/2000/svg" xmlns:xlink="http://www.w3.org/1999/xlink">
    <title>icon/20*20/组件/选中</title>
    <g id="页面-1" stroke="none" stroke-width="1" fill="none" fill-rule="evenodd">
        <g id="活动创建-页面模版" transform="translate(-20.000000, -131.000000)" fill="#333333" fill-rule="nonzero">
            <g id="侧边导航栏" transform="translate(0.000000, 60.000000)">
                <g id="组件" transform="translate(0.000000, 60.000000)">
                    <g id="编组" transform="translate(20.000000, 11.000000)">
                        <path d="M14.7670031,10.5406119 C17.1029986,10.5406119 18.9966971,12.4343105 18.9966971,14.770306 C18.9966971,17.1063015 17.1029986,19 14.7670031,19 C12.4310076,19 10.5373091,17.1063015 10.5373091,14.770306 C10.5373091,12.4343105 12.4310076,10.5406119 14.7670031,10.5406119 Z M14.7670031,12.655459 C13.5990053,12.655459 12.6521561,13.6023082 12.6521561,14.770306 C12.6521561,15.9383037 13.5990053,16.885153 14.7670031,16.885153 C15.9350008,16.885153 16.8818501,15.9383037 16.8818501,14.770306 C16.8818501,13.6023082 15.9350008,12.655459 14.7670031,12.655459 Z" id="椭圆形"></path>
                        <path d="M9.47988555,10.5406119 L9.47988555,19 L1.02049749,19 L1.02049749,10.5406119 L9.47988555,10.5406119 Z M7.36503854,12.655459 L3.13534451,12.655459 L3.13534451,16.885153 L7.36503854,16.885153 L7.36503854,12.655459 Z" id="矩形"></path>
                        <path d="M5.2295793,1.24524499 L5.08303278,1.18946962 C3.81496456,0.739670763 2.41550507,1.05937907 1.47552157,2.48678765 C0.720087618,3.63394919 0.934951349,4.8457471 1.62838571,5.98016488 C1.91001395,6.4408921 2.27307203,6.88723266 2.70192474,7.33228115 C3.0774003,7.72193668 3.4467381,8.0562502 3.75618369,8.31336401 L4.04367432,8.54393504 L5.23088209,9.45938806 L6.41728642,8.54286815 C6.50506951,8.47505405 6.60149667,8.3978456 6.70457706,8.31205629 L7.03178705,8.02975924 L7.38697126,7.70085789 C7.50870113,7.58399904 7.63310252,7.46018629 7.75818456,7.33023311 C8.18457287,6.88723975 8.54589795,6.44306144 8.82674735,5.98491899 C9.52332407,4.84861119 9.74094078,3.63615107 8.98405684,2.48678765 C8.04407334,1.05937907 6.64461385,0.739670763 5.37654563,1.18946962 L5.2295793,1.24524499 Z M7.35530901,3.58604508 C7.72341004,4.14502358 7.23490156,4.95685538 6.63390274,5.64494582 L6.40470855,5.89644382 C6.36611515,5.93714825 6.32744566,5.97718542 6.28888177,6.01646341 L6.06021891,6.2422855 L5.84281044,6.44547379 L5.55687506,6.69816394 L5.22978921,6.96744562 L4.9827958,6.76651677 L4.71823612,6.53764247 L4.50961757,6.34758905 L4.28538454,6.13269521 C4.20900749,6.05741301 4.13148258,5.97872446 4.05426437,5.89736328 L3.82498437,5.6459956 C3.22378223,4.95821391 2.73530006,4.14634216 3.1042694,3.58604508 C3.71156077,2.66384493 4.62249783,2.97124498 5.22978921,3.58604508 C5.83708058,2.97124498 6.74801764,2.66384493 7.35530901,3.58604508 Z" id="路径-2"></path>
                        <path d="M19.3364367,9.51610497 L14.9368729,1.02380038 L10.5373091,9.51610497 L19.3364367,9.51610497 Z M14.9368729,4.81441999 L16.3983393,7.63543098 L13.4754065,7.63543098 L14.9368729,4.81441999 Z" id="路径-3"></path>
                    </g>
                </g>
            </g>
        </g>
    </g>
</svg>