<?xml version="1.0" encoding="UTF-8"?>
<svg width="14px" height="14px" viewBox="0 0 14 14" version="1.1" xmlns="http://www.w3.org/2000/svg" xmlns:xlink="http://www.w3.org/1999/xlink">
    <title>icon/14*14/编辑</title>
    <g id="页面-1" stroke="none" stroke-width="1" fill="none" fill-rule="evenodd">
        <g id="活动创建-页面模版" transform="translate(-323.000000, -23.000000)">
            <g id="修改活动名称" transform="translate(235.000000, 20.000000)">
                <g id="编组" transform="translate(88.000000, 3.000000)">
                    <rect id="矩形" fill="#000000" fill-rule="nonzero" opacity="0" x="0" y="0" width="14" height="14"></rect>
                    <rect id="矩形" fill="#333DDD" transform="translate(9.500000, 5.000000) rotate(-315.000000) translate(-9.500000, -5.000000) " x="9" y="2.27373675e-13" width="1" height="10" rx="0.5"></rect>
                    <path d="M9.57142857,0.5 C9.84757095,0.5 10.0714286,0.723857625 10.0714286,1 C10.0714286,1.24545989 9.89455341,1.44960837 9.6613042,1.49194433 L9.57142857,1.5 L4.42857143,1.5 C2.86893057,1.5 1.59404533,2.71918377 1.50497144,4.25649561 L1.5,4.42857143 L1.5,9.57142857 C1.5,11.1310694 2.71918377,12.4059547 4.25649561,12.4950286 L4.42857143,12.5 L9.57142857,12.5 C11.1310694,12.5 12.4059547,11.2808162 12.4950286,9.74350439 L12.5,9.57142857 L12.5,4.42857143 C12.5,4.15242905 12.7238576,3.92857143 13,3.92857143 C13.2454599,3.92857143 13.4496084,4.10544659 13.4919443,4.3386958 L13.5,4.42857143 L13.5,9.57142857 C13.5,11.6733158 11.8493311,13.3896687 9.77359234,13.4948882 L9.57142857,13.5 L4.42857143,13.5 C2.32668416,13.5 0.610331264,11.8493311 0.505111833,9.77359234 L0.5,9.57142857 L0.5,4.42857143 C0.5,2.32668416 2.15066891,0.610331264 4.22640766,0.505111833 L4.42857143,0.5 L9.57142857,0.5 Z" id="路径" fill="#333333" fill-rule="nonzero"></path>
                </g>
            </g>
        </g>
    </g>
</svg>