<?xml version="1.0" encoding="UTF-8"?>
<svg width="20px" height="20px" viewBox="0 0 20 20" version="1.1" xmlns="http://www.w3.org/2000/svg" xmlns:xlink="http://www.w3.org/1999/xlink">
    <title>icon/20*20/模版/未选中</title>
    <g id="页面-1" stroke="none" stroke-width="1" fill="none" fill-rule="evenodd">
        <g id="活动创建-页面模版" transform="translate(-20.000000, -71.000000)">
            <g id="侧边导航栏" transform="translate(0.000000, 60.000000)">
                <g id="矩形" transform="translate(20.000000, 11.000000)">
                    <rect x="0" y="0" width="20" height="20"></rect>
                    <path d="M16,2 C17.1045695,2 18,2.8954305 18,4 L18,16 C18,17.1045695 17.1045695,18 16,18 L4,18 C2.8954305,18 2,17.1045695 2,16 L2,4 C2,2.8954305 2.8954305,2 4,2 L16,2 Z M16,4 L4,4 L4,16 L16,16 L16,4 Z" fill="#FFFFFF" fill-rule="nonzero"></path>
                    <rect fill="#FFFFFF" x="10" y="4" width="2" height="13"></rect>
                    <rect fill="#FFFFFF" x="11" y="10" width="6" height="2"></rect>
                </g>
            </g>
        </g>
    </g>
</svg>