<?xml version="1.0" encoding="UTF-8"?>
<svg width="24px" height="24px" viewBox="0 0 24 24" version="1.1" xmlns="http://www.w3.org/2000/svg" xmlns:xlink="http://www.w3.org/1999/xlink">
    <!-- Generator: Sketch 60.1 (88133) - https://sketch.com -->
    <title>doctor_icon</title>
    <desc>Created with Sketch.</desc>
    <g id="页面-1" stroke="none" stroke-width="1" fill="none" fill-rule="evenodd" opacity="0.98999995">
        <g id="底部tabicon优化" transform="translate(-129.000000, -27.000000)">
            <g id="编组-6">
                <g id="编组备份-7">
                    <g id="编组备份" transform="translate(35.000000, 27.000000)">
                        <g id="编组-3">
                            <g id="icon/24*24/找名医/点击" transform="translate(94.000000, 0.000000)">
                                <g id="编组-7">
                                    <rect id="矩形" x="0" y="0" width="24" height="24.3478261"></rect>
                                    <path d="M12.7025834,4.05797101 L13.5799898,4.05797101 C14.9165245,4.05797101 16,5.07992974 16,6.34057971 C16,6.41814308 15.9958086,6.49565604 15.9874421,6.57281692 L15.1624386,14.1815126 C15.0361565,15.3461655 13.9961863,16.2318841 12.7549863,16.2318841 L5.24520126,16.2318841 C4.00400127,16.2318841 2.96403111,15.3461655 2.83774892,14.1815126 L2.01274544,6.57281692 C1.8767637,5.31870869 2.84438185,4.19807696 4.17398106,4.06981589 C4.25578663,4.06192443 4.33796548,4.05797101 4.42019778,4.05797101 L5.42837298,4.05797101" id="路径备份-6" stroke="#333333" stroke-width="1.6" stroke-linecap="round"></path>
                                    <ellipse id="椭圆形备份-8" stroke="#333333" stroke-width="1.6" cx="20" cy="13.1884058" rx="2.2" ry="2.24347826"></ellipse>
                                    <path d="M20,15.9055807 C20,16.2826267 20,16.6915322 20,17.1322973 C20,19.4364572 18.7687831,21.3043478 17.25,21.3043478 L11.75,21.3043478 C10.2312169,21.3043478 9,19.4364572 9,17.1322973 L9,16.2604039" id="路径备份-7" stroke="#333333" stroke-width="1.6" stroke-linecap="round"></path>
                                    <path d="M7,11.3063595 C8.05252395,12.4503058 11.3275298,12.0649174 12,11.3063595" id="路径-20备份-3" stroke="#BEB2F2" stroke-width="2" stroke-linecap="round"></path>
                                </g>
                            </g>
                        </g>
                    </g>
                </g>
            </g>
        </g>
    </g>
</svg>