<?xml version="1.0" encoding="UTF-8"?>
<svg width="24px" height="24px" viewBox="0 0 24 24" version="1.1" xmlns="http://www.w3.org/2000/svg" xmlns:xlink="http://www.w3.org/1999/xlink">
    <title>编组 7</title>
    <g id="-" stroke="none" stroke-width="1" fill="none" fill-rule="evenodd">
        <g id="切图" transform="translate(-157.000000, -441.000000)">
            <g id="编组-7" transform="translate(157.000000, 441.000000)">
                <g id="shoucang-2">
                    <rect id="矩形" x="0" y="0" width="24" height="24" rx="3"></rect>
                    <path d="M11.991935,4.04105245 C11.7202468,3.90520836 11.4192176,3.89234801 11.1521495,3.98137073 C10.8850813,4.07039345 10.6519742,4.26129923 10.5161301,4.5329874 L8.81207582,7.94109595 L4.66281313,8.53384776 C4.42719798,8.56750707 4.20885569,8.67667822 4.04055916,8.84497475 C3.8257708,9.05976311 3.71837662,9.34127766 3.71837662,9.62279221 C3.71837662,9.90430676 3.8257708,10.1858213 4.04055916,10.4006097 L6.99969761,13.3597481 L6.471591,16.5283878 C6.43337206,16.7577014 6.46878764,16.9932281 6.57275441,17.2011616 C6.70859849,17.4728498 6.94170562,17.6637556 7.20877377,17.7527783 C7.47584192,17.841801 7.7768711,17.8289407 8.04855927,17.6930966 L11.5,15.9673762 L14.9514407,17.6930966 C15.1593743,17.7970633 15.3949009,17.8324789 15.6242146,17.79426 C15.9238382,17.7443227 16.1748555,17.5776665 16.3384825,17.3485887 C16.5021095,17.1195109 16.5783463,16.8280115 16.528409,16.5283878 L16.0003024,13.3597481 L18.9594408,10.4006097 C19.1277374,10.2323131 19.2369085,10.0139708 19.2705678,9.7783557 C19.3135255,9.47765199 19.2305321,9.18800385 19.0616234,8.96279221 C18.8927147,8.73758057 18.6378906,8.57680544 18.3371869,8.53384776 L14.1879242,7.94109595 L12.4838699,4.5329874 C12.3774298,4.32010726 12.2048151,4.14749252 11.991935,4.04105245 Z" id="星形备份-4" stroke-opacity="0.498251748" stroke="#6549E1" stroke-width="1.4" fill="#E0DBF9"></path>
                </g>
            </g>
        </g>
    </g>
</svg>