<?xml version="1.0" encoding="UTF-8"?>
<svg width="24px" height="24px" viewBox="0 0 24 24" version="1.1" xmlns="http://www.w3.org/2000/svg" xmlns:xlink="http://www.w3.org/1999/xlink">
    <title>编组 7</title>
    <g id="-" stroke="none" stroke-width="1" fill="none" fill-rule="evenodd">
        <g id="切图" transform="translate(-125.000000, -441.000000)">
            <g id="编组-7" transform="translate(125.000000, 441.000000)">
                <g id="shoucang-2">
                    <rect id="矩形" x="0" y="0" width="24" height="24" rx="3"></rect>
                    <path d="M12.4868223,4.08078295 C12.2144328,3.94635069 11.9133409,3.93505278 11.6467384,4.02546032 C11.3801358,4.11586786 11.1480226,4.30798084 11.0135903,4.58037035 L9.23202697,8.19021197 L5.24833023,8.76907699 C5.00892949,8.80386395 4.78767284,8.91659985 4.61881338,9.08983184 C4.40678771,9.30734781 4.30300026,9.59021194 4.30659822,9.8717035 C4.31019618,10.1531951 4.42117955,10.433314 4.63869552,10.6453397 L7.52132556,13.4552095 L6.84082892,17.4228094 C6.79993439,17.6612428 6.83878053,17.9065077 6.95135351,18.1206342 C7.09270395,18.3894987 7.32965164,18.5756163 7.59847785,18.6591801 C7.86730406,18.7427439 8.16800879,18.723754 8.43687331,18.5824035 L12,16.709157 L15.5631267,18.5824035 C15.7772532,18.6949765 16.0225181,18.7338227 16.2609515,18.6929281 C16.5603365,18.6415796 16.8105657,18.4737424 16.9731115,18.2438961 C17.1356573,18.0140499 17.2105196,17.7221945 17.1591711,17.4228094 L16.4786744,13.4552095 L19.3613045,10.6453397 C19.5345365,10.4764802 19.6472724,10.2552236 19.6820593,10.0158229 C19.725739,9.71522318 19.6434415,9.42537656 19.4750741,9.19975993 C19.3067067,8.97414331 19.0522694,8.81275668 18.7516698,8.76907699 L14.767973,8.19021197 L12.9864097,4.58037035 C12.8793464,4.36343648 12.7037561,4.18784621 12.4868223,4.08078295 Z" id="星形备份-4" stroke="#CCCCCC" stroke-width="1.4"></path>
                </g>
            </g>
        </g>
    </g>
</svg>