<?xml version="1.0" encoding="UTF-8"?>
<svg width="12px" height="12px" viewBox="0 0 12 12" version="1.1" xmlns="http://www.w3.org/2000/svg" xmlns:xlink="http://www.w3.org/1999/xlink">
    <!-- Generator: Sketch 60.1 (88133) - https://sketch.com -->
    <title>icon/12*12/复制/ccc</title>
    <desc>Created with Sketch.</desc>
    <g id="页面-1" stroke="none" stroke-width="1" fill="none" fill-rule="evenodd">
        <g id="个人中心-我的处方" transform="translate(-191.000000, -157.000000)">
            <g id="图文咨询/待支付" transform="translate(16.000000, 138.000000)">
                <g id="图文咨询">
                    <g id="编组-2" transform="translate(16.000000, 14.000000)">
                        <g id="编组-3" transform="translate(0.000000, 2.000000)">
                            <g id="icon/12*12/ccc/复制" transform="translate(159.000000, 3.000000)">
                                <g id="icon/12*12/复制/ccc">
                                    <rect id="矩形" x="0" y="0" width="12" height="12"></rect>
                                    <g id="编组-7" transform="translate(1.000000, 1.000000)" stroke="#CCCCCC">
                                        <path d="M8,0.5 L4,0.5 C3.17157288,0.5 2.5,1.17157288 2.5,2 L2.5,2.5 L2,2.5 C1.17157288,2.5 0.5,3.17157288 0.5,4 L0.5,8 C0.5,8.82842712 1.17157288,9.5 2,9.5 L6,9.5 C6.82842712,9.5 7.5,8.82842712 7.5,8 L7.5,7.51803859 L7.98163624,7.50033734 L8.11247369,7.49586951 C8.89201149,7.43835733 9.5,6.78666071 9.5,6 L9.5,2 C9.5,1.17157288 8.82842712,0.5 8,0.5 Z" id="形状结合"></path>
                                        <rect id="矩形" x="0.5" y="2.5" width="7" height="7" rx="2"></rect>
                                    </g>
                                </g>
                            </g>
                        </g>
                    </g>
                </g>
            </g>
        </g>
    </g>
</svg>