<?xml version="1.0" encoding="UTF-8"?>
<svg width="24px" height="24px" viewBox="0 0 24 24" version="1.1" xmlns="http://www.w3.org/2000/svg" xmlns:xlink="http://www.w3.org/1999/xlink">
    <title>编组 6</title>
    <g id="-" stroke="none" stroke-width="1" fill="none" fill-rule="evenodd">
        <g id="切图" transform="translate(-16.000000, -440.000000)">
            <g id="编组-6" transform="translate(16.000000, 440.000000)">
                <rect id="矩形" x="0" y="0" width="24" height="24" rx="3"></rect>
                <path d="M12,4.7 C10.3093012,4.7 8.70400974,5.3240906 7.17586278,6.54660817 C5.63950884,7.77569132 4.18673154,9.59710286 2.80506005,11.9995059 C4.1863602,14.4024316 5.63931249,16.2241516 7.17586278,17.4533918 C8.70400974,18.6759094 10.3093012,19.3 12,19.3 C13.6906988,19.3 15.2959903,18.6759094 16.8241372,17.4533918 C18.3605893,16.2242301 19.8134541,14.4026644 21.1952048,12.0000336 C19.8136398,9.59756844 18.3606875,7.7758484 16.8241372,6.54660817 C15.2959903,5.3240906 13.6906988,4.7 12,4.7 Z" id="椭圆形" stroke="#CCCCCC" stroke-width="1.4"></path>
                <circle id="椭圆形" stroke="#CCCCCC" stroke-width="1.4" cx="12" cy="12" r="2.3"></circle>
            </g>
        </g>
    </g>
</svg>