<?xml version="1.0" encoding="UTF-8"?>
<svg width="23px" height="22px" viewBox="0 0 23 22" version="1.1" xmlns="http://www.w3.org/2000/svg" xmlns:xlink="http://www.w3.org/1999/xlink">
    <title>ic_news</title>
    <g id="tab统一" stroke="none" stroke-width="1" fill="none" fill-rule="evenodd">
        <g id="切图" transform="translate(-204.000000, -376.000000)" fill="#333333" fill-rule="nonzero">
            <g id="ic_news" transform="translate(204.000000, 376.000000)">
                <path d="M19.4310345,19 L12.954023,19 C12.4252874,19 12.0287356,18.6057143 12.0287356,18.08 C12.0287356,17.5542857 12.4252874,17.0285714 12.954023,17.0285714 L19.4310345,17.0285714 C20.3563218,17.0285714 21.1494253,16.24 21.1494253,15.32 L21.1494253,3.54857143 C21.1494253,2.62857143 20.3563218,1.84 19.4310345,1.84 L3.56896552,1.84 C2.64367816,1.97142857 1.85057471,2.62857143 1.85057471,3.68 L1.85057471,15.4514286 C1.85057471,16.3714286 2.64367816,17.0285714 3.56896552,17.0285714 L7.53448276,17.0285714 C8.06321839,17.0285714 8.45977011,17.4228571 8.45977011,17.9485714 C8.45977011,18.4742857 8.06321839,19 7.53448276,19 L3.56896552,19 C1.5862069,19 0,17.4228571 0,15.4514286 L0,3.68 C0,1.70857143 1.5862069,0 3.56896552,0 L19.4310345,0 C21.4137931,0 23,1.57714286 23,3.54857143 L23,15.32 C23,17.2914286 21.4137931,19 19.4310345,19 Z" id="路径"></path>
                <path d="M10.7869257,22 C10.5558639,22 10.4403331,21.8730767 10.3248022,21.7461534 C9.97820952,21.4923069 9.86267864,20.8576905 10.2092713,20.4769207 L12.519889,17.3038387 C12.7509507,16.9230689 13.3286052,16.9230689 13.6751978,17.1769154 C14.0217905,17.430762 14.1373214,18.0653784 13.7907287,18.4461482 L11.480111,21.6192302 C11.2490493,21.8730767 11.0179875,22 10.7869257,22 L10.7869257,22 Z" id="路径"></path>
                <path d="M16.0540541,11 L7.94594595,11 C7.40540541,11 7,10.6 7,10.0666667 C7,9.53333333 7.40540541,9 7.94594595,9 L16.0540541,9 C16.5945946,9 17,9.4 17,9.93333333 C17,10.4666667 16.5945946,11 16.0540541,11 L16.0540541,11 Z" id="路径"></path>
            </g>
        </g>
    </g>
</svg>