<?xml version="1.0" encoding="UTF-8"?>
<svg width="28px" height="28px" viewBox="0 0 28 28" version="1.1" xmlns="http://www.w3.org/2000/svg" xmlns:xlink="http://www.w3.org/1999/xlink">
    <title>Personal Center_ic_wdsc</title>
    <g id="tab统一" stroke="none" stroke-width="1" fill="none" fill-rule="evenodd">
        <g id="切图" transform="translate(-253.000000, -333.000000)" stroke="#FD6C6B" stroke-width="2">
            <g id="Personal-Center_ic_wdsc" transform="translate(253.000000, 333.000000)">
                <g id="shoucang-2" transform="translate(3.000000, 4.000000)">
                    <path d="M19.3806152,0.683837891 C23.1095697,2.3885498 23.9893799,7.86279297 21.4942627,10.2587891 L17.090332,14.7191162 L12.1904556,19.5647469 C11.8058919,19.9450531 11.1886449,19.9506791 10.797213,19.5774458 L5.31408691,14.3492432 L5.31408691,14.3492432 L2.19958496,11.1098633 C-0.295532227,8.71386719 -0.982299805,2.57226562 3.52746582,0.683837891 C6.38454475,-0.512540711 9.71369404,0.178820776 11.5,2.39318848 C13.2848303,0.178820776 16.5732164,-0.59957982 19.3806152,0.683837891 Z" id="路径"></path>
                    <path d="M5.10454788,9.08540276 C3.99746168,7.99699277 3.69274217,5.20709654 5.69373005,4.34925557 C6.96141906,3.80578623 8.4385662,4.11984549 9.23115208,5.1257486" id="路径" stroke-linecap="round"></path>
                </g>
            </g>
        </g>
    </g>
</svg>