<?xml version="1.0" encoding="UTF-8"?>
<svg width="28px" height="28px" viewBox="0 0 28 28" version="1.1" xmlns="http://www.w3.org/2000/svg" xmlns:xlink="http://www.w3.org/1999/xlink">
    <title>Personal Center_ic_sz</title>
    <g id="tab统一" stroke="none" stroke-width="1" fill="none" fill-rule="evenodd">
        <g id="切图" transform="translate(-305.000000, -333.000000)" stroke="#856EE8" stroke-width="2">
            <g id="Personal-Center_ic_sz" transform="translate(302.000000, 330.000000)">
                <path d="M17.3983878,5.2186166 C17.7565623,5.21800331 18.1149013,5.31347246 18.4332416,5.50509283 L18.4332416,5.50509283 L26.7073933,10.4855996 C27.3193746,10.853973 27.688439,11.5207662 27.6756431,12.2349485 L27.6756431,12.2349485 L27.5115731,21.3922121 C27.498939,22.0973656 27.1158419,22.7437385 26.5033293,23.0933516 L26.5033293,23.0933516 L18.3371621,27.7544785 C18.0229962,27.9337998 17.6726545,28.0212967 17.3233362,28.0173857 C16.9740179,28.0134747 16.625723,27.9181559 16.3156507,27.7318456 L16.3156507,27.7318456 L8.03937099,22.7589551 C7.72444981,22.5697313 7.47408931,22.3017828 7.30666057,21.9893869 C7.13923182,21.6769909 7.05473482,21.3201477 7.07154064,20.9531347 L7.07154064,20.9531347 L7.48467048,11.9310206 C7.51516108,11.2651531 7.87537961,10.6582388 8.44528571,10.3125277 L8.44528571,10.3125277 L16.3645211,5.50863506 C16.6822033,5.31592564 17.0402133,5.2192299 17.3983878,5.2186166 Z" id="多边形" transform="translate(17.348623, 16.603731) rotate(59.000000) translate(-17.348623, -16.603731) "></path>
                <circle id="椭圆形" cx="17.2058012" cy="16.6295256" r="2.39958377"></circle>
            </g>
        </g>
    </g>
</svg>