<?xml version="1.0" encoding="UTF-8"?>
<svg width="28px" height="28px" viewBox="0 0 28 28" version="1.1" xmlns="http://www.w3.org/2000/svg" xmlns:xlink="http://www.w3.org/1999/xlink">
    <title>Personal Center_ic_wdyy</title>
    <g id="tab统一" stroke="none" stroke-width="1" fill="none" fill-rule="evenodd" stroke-linecap="round">
        <g id="切图" transform="translate(-201.000000, -333.000000)" stroke="#39E19F" stroke-width="2">
            <g id="Personal-Center_ic_wdyy" transform="translate(201.000000, 333.000000)">
                <path d="M14.5833333,3.5 C8.46217736,3.5 3.5,8.46217736 3.5,14.5833333 C3.5,20.7044893 8.46217736,25.6666667 14.5833333,25.6666667 C20.7044893,25.6666667 25.6666667,20.7044893 25.6666667,14.5833333 C25.6666667,13.992168 25.6203835,13.4118128 25.531243,12.8456934 M24.1172521,10.2965387 C24.0980151,10.2561765 24.078528,10.2159564 24.0587928,10.1758804 C23.9517475,9.9585046 23.8374037,9.7453694 23.7160812,9.5367946 M21.8110839,6.60996864 C21.6629937,6.47688971 21.5110989,6.34796072 21.3555827,6.2233647 M18.3341838,4.17121945 C18.1689038,4.10853578 18.0016297,4.0499046 17.8324829,3.99544721" id="形状"></path>
                <polyline id="路径-2" points="14 9.33333333 14 15.1666667 19.8333333 15.1666667"></polyline>
            </g>
        </g>
    </g>
</svg>