<?xml version="1.0" encoding="UTF-8"?>
<svg width="28px" height="28px" viewBox="0 0 28 28" version="1.1" xmlns="http://www.w3.org/2000/svg" xmlns:xlink="http://www.w3.org/1999/xlink">
    <title>Personal Center_ic_wdzx</title>
    <g id="tab统一" stroke="none" stroke-width="1" fill="none" fill-rule="evenodd">
        <g id="切图" transform="translate(-306.000000, -286.000000)" stroke="#FFA435" stroke-width="2">
            <g id="Personal-Center_ic_wdzx" transform="translate(306.000000, 286.000000)">
                <path d="M13.9889429,3.35743168 C16.9406982,3.35743168 19.6150965,4.48910806 21.5501878,6.32533768 C23.4657998,8.1430831 24.6556096,10.6528715 24.6556096,13.428061 C24.6556096,16.2032505 23.4657998,18.7130389 21.5501878,20.5307844 C19.6150965,22.367014 16.9406982,23.4986904 13.9889429,23.4986904 C13.7472325,23.4986904 13.3845536,23.5024075 12.9363409,23.5070369 C10.7940915,23.5291632 6.57273914,23.6152301 4.6131602,23.3435054 C5.18449931,22.8602381 5.75136671,22.3332057 6.00749047,21.8321012 C6.09501714,21.6608558 6.16374168,21.4584241 6.2185096,21.2366472 C4.30205618,18.2476153 3.32227622,15.9485277 3.32227622,13.428061 C3.32227622,10.6528715 4.51208598,8.1430831 6.42769793,6.32533768 C8.36278927,4.48910806 11.0371876,3.35743168 13.9889429,3.35743168 Z" id="椭圆形"></path>
                <line x1="11.0722762" y1="11.253265" x2="11.0722762" y2="15.628265" id="直线-2" stroke-linecap="round"></line>
                <line x1="18.0722762" y1="11.253265" x2="18.0722762" y2="15.628265" id="直线-2备份" stroke-linecap="round"></line>
            </g>
        </g>
    </g>
</svg>