<?xml version="1.0" encoding="UTF-8"?>
<svg width="20px" height="20px" viewBox="0 0 20 20" version="1.1" xmlns="http://www.w3.org/2000/svg" xmlns:xlink="http://www.w3.org/1999/xlink">
    <title>icon/20*20/搜索</title>
    <g id="首页" stroke="none" stroke-width="1" fill="none" fill-rule="evenodd">
        <g id="搜索栏及信息流tab置顶" transform="translate(-30.000000, -113.000000)">
            <g id="编组-6" transform="translate(0.000000, 89.000000)">
                <g id="编组-2" transform="translate(16.000000, 16.000000)">
                    <g id="icon/20*20/搜索" transform="translate(14.000000, 8.000000)">
                        <rect id="矩形" x="0" y="0" width="20" height="20"></rect>
                        <path d="M4.16071806,4.12216769 C7.04178784,1.29261077 11.712384,1.29261077 14.5930288,4.12216769 L14.593029,4.12216791 C17.3608941,6.81953359 17.4856878,11.227698 14.8748722,14.0773231 L17.9508294,17.098484 L17.9508294,17.098484 C18.0156867,17.1623557 18.0164858,17.2667112 17.9526141,17.3315686 C17.9520237,17.332168 17.9514288,17.3327629 17.9508294,17.3333532 L17.3162709,17.9567863 L17.3162709,17.9567863 C17.2521815,18.0196065 17.1496114,18.0196065 17.0855215,17.9567863 L13.9819439,14.9075996 C11.0852291,17.1862374 6.84562585,17.006995 4.16069897,14.3698725 L4.16069846,14.369872 C1.33087113,11.6112201 1.2731775,7.08085027 4.03182668,4.25102294 C4.07423546,4.20751997 4.11719646,4.16455897 4.16069943,4.12215019 L4.16071806,4.12216769 Z M5.03014585,4.97635023 L5.03014584,4.97635025 C2.67206585,7.27513347 2.62399104,11.0502518 4.9227758,13.4083318 C4.95810857,13.444576 4.9939016,13.480369 5.03014584,13.5157018 C7.43075726,15.8738784 11.3230012,15.8738784 13.7236126,13.5157018 L13.7236127,13.5157016 C16.0816927,11.2169184 16.1297675,7.44180012 13.8309826,5.08372013 C13.7956498,5.0474759 13.7598568,5.01168286 13.7236125,4.9763501 C11.3230011,2.61817353 7.43075722,2.61817353 5.0301458,4.9763501 L5.03014585,4.97635023 Z" id="形状" fill="#999999" fill-rule="nonzero"></path>
                    </g>
                </g>
            </g>
        </g>
    </g>
</svg>