<?xml version="1.0" encoding="UTF-8"?>
<svg width="24px" height="24px" viewBox="0 0 24 24" version="1.1" xmlns="http://www.w3.org/2000/svg" xmlns:xlink="http://www.w3.org/1999/xlink">
    <title>icon/fx</title>
    <g id="-" stroke="none" stroke-width="1" fill="none" fill-rule="evenodd">
        <g id="切图" transform="translate(-50.000000, -440.000000)">
            <g id="icon/fx" transform="translate(50.000000, 440.000000)">
                <g id="编组-3">
                    <rect id="矩形" x="0" y="0" width="24" height="24" rx="3"></rect>
                    <g id="编组-25" transform="translate(5.000000, 5.000000)" stroke="#CCCCCC" stroke-linecap="round" stroke-width="1.4">
                        <path d="M14,6.56079102 L14,11.375 C14,12.8247475 12.8247475,14 11.375,14 L2.625,14 C1.17525253,14 0,12.8247475 0,11.375 L0,2.625 C0,1.17525253 1.17525253,0 2.625,0 L7.05532837,0" id="路径" fill-rule="nonzero"></path>
                        <path d="M7,6.66666667 C7,3.8860991 7.840005,2.66666667 11,2.66666667 C11.3193597,2.66666667 13.0225022,2.66666667 13.6666667,2.66666667" id="路径"></path>
                        <path d="M11,0 L13.6324069,1.31620345 C14.1263854,1.5631927 14.3266097,2.16386574 14.0796205,2.65784423 C14.0179232,2.78123882 13.931361,2.8905325 13.8253777,2.97885192 L11,5.33333333 L11,5.33333333" id="路径-3"></path>
                    </g>
                </g>
            </g>
        </g>
    </g>
</svg>